<?xml version="1.0" encoding="UTF-8" standalone="no"?>
<!DOCTYPE svg PUBLIC "-//W3C//DTD SVG 1.1//EN" "http://www.w3.org/Graphics/SVG/1.1/DTD/svg11.dtd">
<!-- Generated by Microsoft Visio, SVG Export clockIcon.svg Page-13 -->
<svg xmlns="http://www.w3.org/2000/svg" xmlns:xlink="http://www.w3.org/1999/xlink" xmlns:ev="http://www.w3.org/2001/xml-events"
		xmlns:v="http://schemas.microsoft.com/visio/2003/SVGExtensions/" width="0.488889in" height="0.527778in"
		viewBox="0 0 35.2 38" xml:space="preserve" color-interpolation-filters="sRGB" class="st5">
	<v:documentProperties v:langID="1033" v:metric="true" v:viewMarkup="false">
		<v:userDefs>
			<v:ud v:nameU="msvSubprocessMaster" v:prompt="" v:val="VT4(Rectangle)"/>
			<v:ud v:nameU="msvNoAutoConnect" v:val="VT0(1):26"/>
		</v:userDefs>
	</v:documentProperties>

	<style type="text/css">
	<![CDATA[
		.st1 {fill:none;stroke:none;stroke-width:0.25}
		.st2 {fill:#ffffff;stroke:#000000;stroke-linecap:round;stroke-linejoin:round;stroke-width:3}
		.st3 {stroke:#000000;stroke-linecap:round;stroke-linejoin:round;stroke-width:3}
		.st4 {fill:#000000;stroke:#000000;stroke-linecap:round;stroke-linejoin:round;stroke-width:1.5}
		.st5 {fill:none;fill-rule:evenodd;font-size:12px;overflow:visible;stroke-linecap:square;stroke-miterlimit:3}
	]]>
	</style>

	<g v:mID="43" v:index="13" v:groupContext="foregroundPage">
		<v:userDefs>
			<v:ud v:nameU="msvThemeOrder" v:val="VT0(0):26"/>
		</v:userDefs>
		<title>clockIcon</title>
		<v:pageProperties v:drawingScale="0.0138889" v:pageScale="0.0138889" v:drawingUnits="29" v:shadowOffsetX="9"
				v:shadowOffsetY="-9"/>
		<g id="shape1-1" v:mID="1" v:groupContext="shape" transform="translate(-1.07632,-0.850001)">
			<title>Sheet.1</title>
			<rect x="0" y="0.5" width="37.5" height="37.5" class="st1"/>
		</g>
		<g id="shape2-3" v:mID="2" v:groupContext="shape" transform="translate(1.17368,-1.6)">
			<title>Sheet.2</title>
			<ellipse cx="16.5" cy="21.5" rx="16.5" ry="16.5" class="st2"/>
		</g>
		<g id="shape3-5" v:mID="3" v:groupContext="shape" transform="translate(33.023,59.0408) rotate(135)">
			<title>Sheet.3</title>
			<path d="M0 38 L5.98 38" class="st3"/>
		</g>
		<g id="shape4-8" v:mID="4" v:groupContext="shape" transform="translate(56.0645,5.30069) rotate(45)">
			<title>Sheet.4</title>
			<path d="M0 38 L5.98 38" class="st3"/>
		</g>
		<g id="shape5-11" v:mID="5" v:groupContext="shape" transform="translate(18.9419,-26.2412) rotate(-8)">
			<title>Sheet.5</title>
			<path d="M8.89 38 C9.44 37.05 9.75 35.95 9.75 34.78 C9.75 31.17 6.83 28.25 3.22 28.25 C2.05 28.25 0.95 28.56 0 29.11
						 L8.89 38 Z" class="st4"/>
		</g>
		<g id="shape6-13" v:mID="6" v:groupContext="shape" transform="translate(6.19058,-27.6098) rotate(7)">
			<title>Sheet.6</title>
			<path d="M0.86 38 C0.31 37.05 0 35.95 0 34.78 C0 31.17 2.92 28.25 6.53 28.25 C7.7 28.25 8.8 28.56 9.75 29.11 L0.86 38
						 Z" class="st4"/>
		</g>
	</g>
</svg>
