<?xml version="1.0" encoding="UTF-8" standalone="no"?>
<!DOCTYPE svg PUBLIC "-//W3C//DTD SVG 1.1//EN" "http://www.w3.org/Graphics/SVG/1.1/DTD/svg11.dtd">
<!-- Generated by Microsoft Visio, SVG Export dateIcon.svg Page-1 -->
<svg xmlns="http://www.w3.org/2000/svg" xmlns:xlink="http://www.w3.org/1999/xlink" xmlns:ev="http://www.w3.org/2001/xml-events"
		xmlns:v="http://schemas.microsoft.com/visio/2003/SVGExtensions/" width="0.788698in" height="0.78554in"
		viewBox="0 0 56.7863 56.5589" xml:space="preserve" color-interpolation-filters="sRGB" class="st3">
	<v:documentProperties v:langID="1033" v:metric="true" v:viewMarkup="false"/>

	<style type="text/css">
	<![CDATA[
		.st1 {fill:#ffffff;stroke:none;stroke-linecap:round;stroke-linejoin:round;stroke-width:0.75}
		.st2 {fill:#000000;stroke:none;stroke-linecap:round;stroke-linejoin:round;stroke-width:0.75}
		.st3 {fill:none;fill-rule:evenodd;font-size:12px;overflow:visible;stroke-linecap:square;stroke-miterlimit:3}
	]]>
	</style>

	<g v:mID="0" v:index="1" v:groupContext="foregroundPage">
		<title>Page-1</title>
		<v:pageProperties v:drawingScale="0.0138889" v:pageScale="0.0138889" v:drawingUnits="29" v:shadowOffsetX="8.50394"
				v:shadowOffsetY="-8.50394"/>
		<g id="group1-1" v:mID="1" v:groupContext="group">
			<title>Sheet.1</title>
			<g id="shape2-2" v:mID="2" v:groupContext="shape">
				<title>Sheet.2</title>
				<path d="M0 7.07 L0 56.56 L56.79 56.56 L56.79 7.07 L0 7.07 L0 7.07 Z" class="st1"/>
			</g>
			<g id="shape3-4" v:mID="3" v:groupContext="shape" transform="translate(0,-28.2795)">
				<title>Sheet.3</title>
				<path d="M0 53.68 L0 56.56 L56.79 56.56 L56.79 53.68 L0 53.68 L0 53.68 Z" class="st2"/>
			</g>
			<g id="shape4-6" v:mID="4" v:groupContext="shape" transform="translate(0,-15.5777)">
				<title>Sheet.4</title>
				<path d="M0 53.8 L0 56.56 L56.79 56.56 L56.79 53.8 L0 53.8 L0 53.8 Z" class="st2"/>
			</g>
			<g id="shape5-8" v:mID="5" v:groupContext="shape" transform="translate(27.0125,-4.91296)">
				<title>Sheet.5</title>
				<path d="M0 15.58 L0 56.56 L2.76 56.56 L2.76 15.58 L0 15.58 L0 15.58 Z" class="st2"/>
			</g>
			<g id="shape6-10" v:mID="6" v:groupContext="shape" transform="translate(14.8869,-4.19399)">
				<title>Sheet.6</title>
				<path d="M0 15.46 L0 56.56 L2.88 56.56 L2.88 15.46 L0 15.46 L0 15.46 Z" class="st2"/>
			</g>
			<g id="shape7-12" v:mID="7" v:groupContext="shape" transform="translate(39.0181,-4.19399)">
				<title>Sheet.7</title>
				<path d="M0 15.46 L0 56.56 L2.76 56.56 L2.76 15.46 L0 15.46 L0 15.46 Z" class="st2"/>
			</g>
			<g id="shape8-14" v:mID="8" v:groupContext="shape" transform="translate(0,-40.9812)">
				<title>Sheet.8</title>
				<path d="M0 46.61 L0 56.56 L56.79 56.56 L56.79 46.61 L0 46.61 L0 46.61 Z" class="st2"/>
			</g>
			<g id="shape9-16" v:mID="9" v:groupContext="shape">
				<title>Sheet.9</title>
				<path d="M0 50.93 L0 56.56 L56.79 56.56 L56.79 50.93 L0 50.93 L0 50.93 Z" class="st2"/>
			</g>
			<g id="shape10-18" v:mID="10" v:groupContext="shape" transform="translate(3.14748E-014,-1.43794)">
				<title>Sheet.10</title>
				<path d="M0 11.26 L0 56.56 L5.64 56.56 L5.64 11.26 L0 11.26 L0 11.26 Z" class="st2"/>
			</g>
			<g id="shape11-20" v:mID="11" v:groupContext="shape" transform="translate(51.0236,-1.43794)">
				<title>Sheet.11</title>
				<path d="M0 11.26 L0 56.56 L5.76 56.56 L5.76 11.26 L0 11.26 L0 11.26 Z" class="st2"/>
			</g>
			<g id="shape12-22" v:mID="12" v:groupContext="shape" transform="translate(22.6905,-45.2951)">
				<title>Sheet.12</title>
				<path d="M0 50.93 C0 47.84 2.58 45.3 5.7 45.3 C8.85 45.3 11.41 47.84 11.41 50.93 C11.41 54.04 8.85 56.56 5.7 56.56
							 C2.58 56.56 0 54.04 0 50.93 Z" class="st2"/>
			</g>
			<g id="shape13-24" v:mID="13" v:groupContext="shape" transform="translate(28.3331,-18.3337)">
				<title>Sheet.13</title>
				<path d="M0 45.18 L0 56.56 L12.13 56.56 L12.13 45.18 L0 45.18 L0 45.18 Z" class="st2"/>
			</g>
		</g>
	</g>
</svg>
