<?xml version="1.0" encoding="UTF-8" standalone="no"?>
<!DOCTYPE svg PUBLIC "-//W3C//DTD SVG 1.1//EN" "http://www.w3.org/Graphics/SVG/1.1/DTD/svg11.dtd">
<!-- Generated by Microsoft Visio, SVG Export dayIcon.svg clockIcon -->
<svg xmlns="http://www.w3.org/2000/svg" xmlns:xlink="http://www.w3.org/1999/xlink" xmlns:ev="http://www.w3.org/2001/xml-events"
		xmlns:v="http://schemas.microsoft.com/visio/2003/SVGExtensions/" width="0.805556in" height="0.805556in" viewBox="0 0 58 58"
		xml:space="preserve" color-interpolation-filters="sRGB" class="st3">
	<v:documentProperties v:langID="1033" v:metric="true" v:viewMarkup="false">
		<v:userDefs>
			<v:ud v:nameU="msvSubprocessMaster" v:prompt="" v:val="VT4(Rectangle)"/>
			<v:ud v:nameU="msvNoAutoConnect" v:val="VT0(1):26"/>
		</v:userDefs>
	</v:documentProperties>

	<style type="text/css">
	<![CDATA[
		.st1 {fill:#ffffff;stroke:none;stroke-linecap:round;stroke-linejoin:round;stroke-width:0.75}
		.st2 {fill:#000000;stroke:none;stroke-linecap:round;stroke-linejoin:round;stroke-width:0.75}
		.st3 {fill:none;fill-rule:evenodd;font-size:12px;overflow:visible;stroke-linecap:square;stroke-miterlimit:3}
	]]>
	</style>

	<g v:mID="40" v:index="12" v:groupContext="foregroundPage">
		<v:userDefs>
			<v:ud v:nameU="msvThemeOrder" v:val="VT0(0):26"/>
		</v:userDefs>
		<title>dayIcon</title>
		<v:pageProperties v:drawingScale="0.0138889" v:pageScale="0.0138889" v:drawingUnits="29" v:shadowOffsetX="8.50394"
				v:shadowOffsetY="-8.50394"/>
		<g id="group1-1" transform="translate(0.495744,-0.609433)" v:mID="1" v:groupContext="group">
			<title>Sheet.1</title>
			<g id="shape2-2" v:mID="2" v:groupContext="shape">
				<title>Sheet.2</title>
				<path d="M0 8.51 L0 58 L56.79 58 L56.79 8.51 L0 8.51 L0 8.51 Z" class="st1"/>
			</g>
			<g id="shape8-4" v:mID="8" v:groupContext="shape" transform="translate(0,-40.9812)">
				<title>Sheet.8</title>
				<path d="M0 48.05 L0 58 L56.79 58 L56.79 48.05 L0 48.05 L0 48.05 Z" class="st2"/>
			</g>
			<g id="shape9-6" v:mID="9" v:groupContext="shape">
				<title>Sheet.9</title>
				<path d="M0 54.61 L0 58 L56.79 58 L56.79 54.61 L0 54.61 L0 54.61 Z" class="st2"/>
			</g>
			<g id="shape10-8" v:mID="10" v:groupContext="shape" transform="translate(3.2474E-014,-1.43794)">
				<title>Sheet.10</title>
				<path d="M0 12.7 L0 58 L3.5 58 L3.5 12.7 L0 12.7 L0 12.7 Z" class="st2"/>
			</g>
			<g id="shape11-10" v:mID="11" v:groupContext="shape" transform="translate(53.2069,-1.43794)">
				<title>Sheet.11</title>
				<path d="M0 12.7 L0 58 L3.58 58 L3.58 12.7 L0 12.7 L0 12.7 Z" class="st2"/>
			</g>
			<g id="shape12-12" v:mID="12" v:groupContext="shape" transform="translate(3.50426,-45.2951)">
				<title>Sheet.12</title>
				<path d="M0 51.95 C0 48.64 3.39 45.9 7.5 45.9 C11.64 45.9 15 48.64 15 51.95 C15 55.3 11.64 58 7.5 58 C3.39 58 0 55.3
							 0 51.95 Z" class="st2"/>
			</g>
		</g>
		<g id="shape14-14" v:mID="14" v:groupContext="shape" transform="translate(39.4,-45.9045)">
			<title>Sheet.14</title>
			<path d="M0 51.95 C0 48.64 3.24 45.9 7.15 45.9 C11.1 45.9 14.3 48.64 14.3 51.95 C14.3 55.3 11.1 58 7.15 58 C3.24 58 -0
						 55.3 0 51.95 Z" class="st2"/>
		</g>
	</g>
</svg>
