<?xml version="1.0" encoding="UTF-8" standalone="no"?>
<!DOCTYPE svg PUBLIC "-//W3C//DTD SVG 1.1//EN" "http://www.w3.org/Graphics/SVG/1.1/DTD/svg11.dtd">
<!-- Generated by Microsoft Visio, SVG Export keyIcon.svg keyIcon -->
<svg xmlns="http://www.w3.org/2000/svg" xmlns:xlink="http://www.w3.org/1999/xlink" xmlns:ev="http://www.w3.org/2001/xml-events"
		xmlns:v="http://schemas.microsoft.com/visio/2003/SVGExtensions/" width="0.797222in" height="0.797222in"
		viewBox="0 0 57.4 57.4" xml:space="preserve" color-interpolation-filters="sRGB" class="st3">
	<v:documentProperties v:langID="1033" v:metric="true" v:viewMarkup="false">
		<v:userDefs>
			<v:ud v:nameU="msvSubprocessMaster" v:prompt="" v:val="VT4(Rectangle)"/>
			<v:ud v:nameU="msvNoAutoConnect" v:val="VT0(1):26"/>
		</v:userDefs>
	</v:documentProperties>

	<style type="text/css">
	<![CDATA[
		.st1 {fill:#000000;stroke:none;stroke-linecap:round;stroke-linejoin:round;stroke-width:0.75}
		.st2 {fill:#ffffff;stroke:none;stroke-linecap:round;stroke-linejoin:round;stroke-width:0.75}
		.st3 {fill:none;fill-rule:evenodd;font-size:12px;overflow:visible;stroke-linecap:square;stroke-miterlimit:3}
	]]>
	</style>

	<g v:mID="26" v:index="7" v:groupContext="foregroundPage">
		<v:userDefs>
			<v:ud v:nameU="msvThemeOrder" v:val="VT0(0):26"/>
		</v:userDefs>
		<title>keyIcon</title>
		<v:pageProperties v:drawingScale="0.0138889" v:pageScale="0.0138889" v:drawingUnits="29" v:shadowOffsetX="8.50394"
				v:shadowOffsetY="-8.50394"/>
		<g id="group1-1" transform="translate(0.4,-0.4)" v:mID="1" v:groupContext="group">
			<title>Sheet.1</title>
			<g id="shape2-2" v:mID="2" v:groupContext="shape">
				<title>Sheet.2</title>
				<path d="M0 40.44 C-0 31.08 12.69 23.49 28.33 23.49 C43.99 23.49 56.67 31.08 56.67 40.44 C56.67 49.81 43.99 57.4
							 28.33 57.4 C12.69 57.4 0 49.81 0 40.44 Z" class="st1"/>
			</g>
			<g id="shape3-4" v:mID="3" v:groupContext="shape" transform="translate(21.2498,-22.6475)">
				<title>Sheet.3</title>
				<path d="M0 25.85 C0 24.54 1.06 23.49 2.36 23.49 L11.81 23.49 C13.12 23.49 14.17 24.54 14.17 25.85 L14.17 55.05 C14.17
							 56.35 13.12 57.4 11.81 57.4 L2.36 57.4 C1.06 57.4 0 56.35 0 55.05 L0 25.85 Z" class="st1"/>
			</g>
			<g id="shape4-6" v:mID="4" v:groupContext="shape" transform="translate(28.5732,-46.2537)">
				<title>Sheet.4</title>
				<path d="M0 56.2 C0 56.87 0.54 57.4 1.2 57.4 L12.97 57.4 C13.63 57.4 14.17 56.87 14.17 56.2 L14.17 51.41 C14.17 50.75
							 13.63 50.21 12.97 50.21 L1.2 50.21 C0.54 50.21 0 50.75 0 51.41 L0 56.2 Z" class="st1"/>
			</g>
			<g id="shape5-8" v:mID="5" v:groupContext="shape" transform="translate(21.2498,-4.19399)">
				<title>Sheet.5</title>
				<path d="M0 53.15 C0 50.8 3.17 48.89 7.08 48.89 C11 48.89 14.17 50.8 14.17 53.15 C14.17 55.5 11 57.4 7.08 57.4 C3.17
							 57.4 -0 55.5 0 53.15 Z" class="st2"/>
			</g>
		</g>
	</g>
</svg>
