<?xml version="1.0" encoding="UTF-8" standalone="no"?>
<!DOCTYPE svg PUBLIC "-//W3C//DTD SVG 1.1//EN" "http://www.w3.org/Graphics/SVG/1.1/DTD/svg11.dtd">
<!-- Generated by Microsoft Visio, SVG Export sizeIcon.svg Page-1 -->
<svg xmlns="http://www.w3.org/2000/svg" xmlns:xlink="http://www.w3.org/1999/xlink" xmlns:ev="http://www.w3.org/2001/xml-events"
		xmlns:v="http://schemas.microsoft.com/visio/2003/SVGExtensions/" width="0.787031in" height="0.78554in"
		viewBox="0 0 56.6662 56.5589" xml:space="preserve" color-interpolation-filters="sRGB" class="st3">
	<v:documentProperties v:langID="1033" v:metric="true" v:viewMarkup="false"/>

	<style type="text/css">
	<![CDATA[
		.st1 {fill:#000000;stroke:none;stroke-linecap:round;stroke-linejoin:round;stroke-width:0.75}
		.st2 {fill:#000000;stroke:#000000;stroke-linecap:round;stroke-linejoin:round;stroke-width:0.75}
		.st3 {fill:none;fill-rule:evenodd;font-size:12px;overflow:visible;stroke-linecap:square;stroke-miterlimit:3}
	]]>
	</style>

	<g v:mID="0" v:index="1" v:groupContext="foregroundPage">
		<title>Page-1</title>
		<v:pageProperties v:drawingScale="0.0138889" v:pageScale="0.0138889" v:drawingUnits="29" v:shadowOffsetX="8.50394"
				v:shadowOffsetY="-8.50394"/>
		<g id="group1-1" v:mID="1" v:groupContext="group">
			<title>Sheet.1</title>
			<g id="shape2-2" v:mID="2" v:groupContext="shape" transform="translate(-3.19744E-014,-53.8029)">
				<title>Sheet.2</title>
				<path d="M0 53.8 L0 56.56 L8.52 56.56 L8.52 53.8 L0 53.8 L0 53.8 Z" class="st1"/>
			</g>
			<g id="shape3-4" v:mID="3" v:groupContext="shape" transform="translate(6.39488E-014,-48.0511)">
				<title>Sheet.3</title>
				<path d="M0 50.81 L0 56.56 L2.76 56.56 L2.76 50.81 L0 50.81 L0 50.81 Z" class="st1"/>
			</g>
			<g id="shape4-6" v:mID="4" v:groupContext="shape">
				<title>Sheet.4</title>
				<path d="M0 16.9 L0 56.56 L39.62 56.56 L39.62 16.9 L0 16.9 L0 16.9 Z" class="st2"/>
			</g>
			<g id="shape5-8" v:mID="5" v:groupContext="shape" transform="translate(40.1436,-40.0825)">
				<title>Sheet.5</title>
				<path d="M0 56.56 L0 48.55 L2.01 50.55 L10.04 42.54 L8.03 40.53 L16.04 40.53 L16.04 48.55 L14.05 46.54 L6.02 54.55
							 L8.03 56.56 L0 56.56 Z" class="st1"/>
			</g>
			<g id="shape6-10" v:mID="6" v:groupContext="shape" transform="translate(48.1423,-4.26326E-014)">
				<title>Sheet.6</title>
				<path d="M0 53.8 L0 56.56 L8.52 56.56 L8.52 53.8 L0 53.8 L0 53.8 Z" class="st1"/>
			</g>
			<g id="shape7-12" v:mID="7" v:groupContext="shape" transform="translate(53.7849,-2.75605)">
				<title>Sheet.7</title>
				<path d="M0 50.81 L0 56.56 L2.88 56.56 L2.88 50.81 L0 50.81 L0 50.81 Z" class="st1"/>
			</g>
			<g id="shape8-14" v:mID="8" v:groupContext="shape" transform="translate(11.2852,-53.8029)">
				<title>Sheet.8</title>
				<path d="M0 53.8 L0 56.56 L8.52 56.56 L8.52 53.8 L0 53.8 L0 53.8 Z" class="st1"/>
			</g>
			<g id="shape9-16" v:mID="9" v:groupContext="shape" transform="translate(22.6905,-53.8029)">
				<title>Sheet.9</title>
				<path d="M0 53.8 L0 56.56 L8.4 56.56 L8.4 53.8 L0 53.8 L0 53.8 Z" class="st1"/>
			</g>
			<g id="shape10-18" v:mID="10" v:groupContext="shape" transform="translate(33.9757,-53.8029)">
				<title>Sheet.10</title>
				<path d="M0 53.8 L0 56.56 L8.52 56.56 L8.52 53.8 L0 53.8 L0 53.8 Z" class="st1"/>
			</g>
			<g id="shape11-20" v:mID="11" v:groupContext="shape" transform="translate(53.7849,-11.2639)">
				<title>Sheet.11</title>
				<path d="M0 56.56 L0 48.05 L2.88 48.05 L2.88 56.56 L0 56.56 Z" class="st1"/>
			</g>
			<g id="shape12-22" v:mID="12" v:groupContext="shape" transform="translate(53.7849,-22.6475)">
				<title>Sheet.12</title>
				<path d="M0 56.56 L0 48.05 L2.88 48.05 L2.88 56.56 L0 56.56 Z" class="st1"/>
			</g>
			<g id="shape13-24" v:mID="13" v:groupContext="shape" transform="translate(53.7849,-33.9114)">
				<title>Sheet.13</title>
				<path d="M0 56.56 L0 48.05 L2.88 48.05 L2.88 56.56 L0 56.56 Z" class="st1"/>
			</g>
			<g id="shape14-26" v:mID="14" v:groupContext="shape" transform="translate(6.39488E-014,-42.4192)">
				<title>Sheet.14</title>
				<path d="M0 56.56 L0 53.68 L2.76 53.68 L2.76 56.56 L0 56.56 Z" class="st1"/>
			</g>
			<g id="shape15-28" v:mID="15" v:groupContext="shape" transform="translate(42.4997,-4.26326E-014)">
				<title>Sheet.15</title>
				<path d="M0 53.8 L0 56.56 L2.88 56.56 L2.88 53.8 L0 53.8 L0 53.8 Z" class="st1"/>
			</g>
		</g>
	</g>
</svg>
